<svg xmlns="http://www.w3.org/2000/svg" viewBox="0 0 64 88" fill="none">
  <path d="M58 88H6a6 6 0 0 1-6-6V6a6 6 0 0 1 6-6h36l22 22v60a6 6 0 0 1-6 6z" fill="#0F9D58"/>
  <path d="M42 0l22 22H48a6 6 0 0 1-6-6V0z" fill="#87CEAC"/>
  <rect x="12" y="34" width="40" height="40" rx="2" fill="#fff"/>
  <rect x="12" y="34" width="18" height="10" fill="#fff" stroke="#0F9D58" stroke-width="2"/>
  <rect x="30" y="34" width="22" height="10" fill="#fff" stroke="#0F9D58" stroke-width="2"/>
  <rect x="12" y="44" width="18" height="10" fill="#fff" stroke="#0F9D58" stroke-width="2"/>
  <rect x="30" y="44" width="22" height="10" fill="#fff" stroke="#0F9D58" stroke-width="2"/>
  <rect x="12" y="54" width="18" height="10" fill="#fff" stroke="#0F9D58" stroke-width="2"/>
  <rect x="30" y="54" width="22" height="10" fill="#fff" stroke="#0F9D58" stroke-width="2"/>
  <rect x="12" y="64" width="18" height="10" fill="#fff" stroke="#0F9D58" stroke-width="2"/>
  <rect x="30" y="64" width="22" height="10" fill="#fff" stroke="#0F9D58" stroke-width="2"/>
</svg>
