<svg xmlns="http://www.w3.org/2000/svg" viewBox="0 0 240 234">
  <path fill="#31A8FF" d="M42.5 0h155C221.1 0 240 18.9 240 42.5v149c0 23.6-18.9 42.5-42.5 42.5h-155C18.9 234 0 215.1 0 191.5v-149C0 18.9 18.9 0 42.5 0z"/>
  <path fill="#FFF" d="M54 164.1V61.2c0-.7.3-1.1 1.1-1.1 1.7 0 3.3 0 5.6-.1 2.4-.1 4.9-.1 7.6-.2s5.6-.1 8.7-.2c3.1-.1 6.1-.1 9.1-.1 8.2 0 15 1.2 20.6 3.7 5.6 2.4 9.9 5.7 12.9 9.8 3.1 4.1 5.3 8.7 6.6 13.6 1.3 4.9 1.9 9.9 1.9 14.8 0 4.7-.7 9.3-2.2 14.1-1.5 4.8-3.9 9.1-7.3 12.8-3.4 3.7-7.9 6.7-13.4 9-5.5 2.2-12.2 3.4-20.2 3.4-2.4 0-4.4 0-5.9-.1-1.5-.1-2.8-.1-3.9-.2v28.9c0 .5-.4.9-.9.9H55.9c-.5 0-.9-.4-.9-.9zm21.8-50.6c1.3.1 2.6.1 4.1.1 2.4 0 4.8-.3 7.2-.8 2.4-.5 4.6-1.3 6.4-2.5 1.9-1.2 3.4-2.7 4.6-4.7 1.2-1.9 1.7-4.2 1.7-6.8 0-5.3-1.9-9.2-5.8-11.4-4.1-2.7-9.4-3.7-15.8-3.7-1.6 0-3.1 0-4.5.1-1.3.1-2.7.1-3.9.2v29.5zM169 113.6c-2.9-1.2-6.4-1.9-10.2-1.9-4.2 0-7.6 1.2-10.2 3.5-2.6 2.4-4.2 5.6-4.2 9.6 0 4.8 1.9 8.6 5.8 11.1 4.1 2.7 9.6 5.1 16.2 7.7 6 2.4 11.4 5.1 16.2 8.1 4.8 3.1 8.6 6.8 11.1 11.1 2.6 4.3 3.8 9.6 3.8 15.9 0 6.4-1.3 12.1-3.8 16.7-2.6 4.8-6 8.8-10.4 11.9-4.3 3.1-9.4 5.4-15.2 6.9-5.8 1.5-12.1 2.2-18.5 2.2-6.2 0-12.1-.7-17.4-2.1-5.4-1.5-9.8-3.4-13.2-5.6-.5-.3-.9-.9-.9-1.5v-16.4c0-.7.7-1.1 1.2-.7 3.8 2.9 8.2 5.1 13.2 6.8 5.1 1.7 9.9 2.6 14.8 2.6 4.8 0 8.6-1.1 11.6-3.4 2.9-2.2 4.4-5.6 4.4-10.2 0-4.8-1.9-8.7-5.8-11.4-4.1-2.9-9.6-5.4-16.7-7.9-6-2.2-11.1-4.6-15.6-7.7-4.4-3.1-7.9-6.6-10.2-10.6-2.4-4.1-3.6-8.8-3.6-14.6 0-5.8 1.2-11.1 3.6-15.6 2.4-4.6 5.7-8.4 9.9-11.4 4.2-3.1 9.1-5.4 14.6-6.9 5.6-1.5 11.4-2.2 17.4-2.2 5.1 0 9.9.5 14.4 1.7 4.6 1.2 8.1 2.6 10.9 4.2.5.3.9.9.9 1.5v15.4c0 .7-.7 1.1-1.2.7z"/>
</svg>
