<svg xmlns="http://www.w3.org/2000/svg" width="24" height="24" viewBox="0 0 24 24" fill="currentColor">
  <path d="M3,13.5C3,13.5 3,13.5 3,13.5C3,13.7 3,13.9 3,14C3,14.3 3.2,14.5 3.5,14.5C3.8,14.5 4,14.3 4,14C4,13.9 4,13.7 4,13.5C4,13.5 4,13.5 4,13.5M5,13.5C5,13.5 5,13.5 5,13.5C5,13.7 5,13.9 5,14C5,14.3 5.2,14.5 5.5,14.5C5.8,14.5 6,14.3 6,14C6,13.9 6,13.7 6,13.5C6,13.5 6,13.5 6,13.5M7,13.5C7,13.5 7,13.5 7,13.5C7,13.7 7,13.9 7,14C7,14.3 7.2,14.5 7.5,14.5C7.8,14.5 8,14.3 8,14C8,13.9 8,13.7 8,13.5C8,13.5 8,13.5 8,13.5M9,13.5C9,13.5 9,13.5 9,13.5C9,13.7 9,13.9 9,14C9,14.3 9.2,14.5 9.5,14.5C9.8,14.5 10,14.3 10,14C10,13.9 10,13.7 10,13.5C10,13.5 10,13.5 10,13.5M11,13.5C11,13.5 11,13.5 11,13.5C11,13.7 11,13.9 11,14C11,14.3 11.2,14.5 11.5,14.5C11.8,14.5 12,14.3 12,14C12,13.9 12,13.7 12,13.5C12,13.5 12,13.5 12,13.5M2.88,3.5C3.5,4.5 11.5,4.5 11.5,4.5C11.5,4.5 11.5,5 11.5,6C11.5,6 11.5,6 11.5,6L12,11.5C12,11.5 12,11.5 12,11.5C12,12.3 11.3,13 10.5,13C9.7,13 9,12.3 9,11.5V10H15V11.5C15,12.3 14.3,13 13.5,13C12.7,13 12,12.3 12,11.5C12,11.5 12,11.5 12,11.5L12.5,6C12.5,6 12.5,6 12.5,6C12.5,5 12.5,4.5 12.5,4.5C12.5,4.5 20.5,4.5 21.12,3.5L12,1L2.88,3.5M10.5,15C11.88,15 13,16.12 13,17.5V18.5C13,19.88 11.88,21 10.5,21H13.5C14.88,21 16,19.88 16,18.5V17.5C16,16.12 14.88,15 13.5,15H10.5Z" />
</svg>
