<svg role="img" viewBox="0 0 24 24" xmlns="http://www.w3.org/2000/svg">
  <title>Website</title>
  <path d="M12 0C5.372 0 0 5.372 0 12s5.372 12 12 12 12-5.372 12-12S18.628 0 12 0zm5.567 7.813h-2.506c-.465-1.697-1.14-3.24-1.98-4.54a9.252 9.252 0 013.239 2.627c.329.396.617.839.813 1.271v.642zm-2.506 8.374h2.506c-.196.432-.484.875-.813 1.271a9.252 9.252 0 01-3.239 2.627c.84-1.3 1.515-2.843 1.98-4.54v-.358zm-9.061 0h2.506c.465 1.697 1.14 3.24 1.98 4.54a9.252 9.252 0 01-3.239-2.627c-.329-.396-.617-.839-.813-1.271v-.642zm2.506-8.374H6.0c.196-.432.484-.875.813-1.271a9.252 9.252 0 013.239-2.627c-.84 1.3-1.515 2.843-1.98 4.54v.358zm1.348 6.643h3.291c-.465 1.978-1.13 3.704-1.646 4.842-.515-1.138-1.18-2.864-1.645-4.842zm0-1.731h3.291c.465-1.978 1.13-3.704 1.645-4.842.516 1.138 1.181 2.864 1.646 4.842H9.854z"/>
</svg>
